<svg width="101" height="40" viewBox="0 0 101 40" fill="none" xmlns="http://www.w3.org/2000/svg">
<g filter="url(#filter0_d_14_1623)">
<path d="M92 0H35V32H92C94.7614 32 97 29.7614 97 27V5C97 2.23858 94.7614 0 92 0Z" fill="#164557"/>
<path d="M35 0H9C6.23858 0 4 2.23858 4 5V27C4 29.7614 6.23858 32 9 32H35V0Z" fill="#1D2125"/>
<path d="M23.8464 19.1149C23.5746 18.9676 23.2702 18.891 22.9611 18.8923C22.2807 18.8923 21.8087 19.3656 21.8087 20.0046C21.8087 20.6243 22.2604 21.1179 22.9611 21.1179C23.2699 21.1186 23.5742 21.0426 23.8464 20.8966V22.0159C23.5355 22.1111 23.2125 22.161 22.8874 22.164C21.7037 22.164 20.6648 21.348 20.6648 20.004C20.6648 18.7591 21.6048 17.8457 22.8874 17.8457C23.2128 17.8466 23.5362 17.8971 23.8464 17.9954V19.1149ZM12.8622 19.1149C12.5911 18.9673 12.287 18.8907 11.9783 18.8923C11.2966 18.8923 10.825 19.3656 10.825 20.0046C10.825 20.6243 11.277 21.1179 11.9783 21.1179C12.2868 21.1189 12.5906 21.0428 12.8622 20.8966V22.0159C12.5511 22.1115 12.2277 22.1614 11.9022 22.164C10.7196 22.164 9.68198 21.348 9.68198 20.004C9.68198 18.7591 10.622 17.8457 11.9026 17.8457C12.2282 17.8463 12.5519 17.8968 12.8622 17.9954V19.1149ZM27.1567 18.908C27.0127 18.9066 26.8699 18.9341 26.7367 18.9888C26.6035 19.0436 26.4826 19.1244 26.3812 19.2267C26.2797 19.3289 26.1998 19.4504 26.1462 19.584C26.0925 19.7177 26.0661 19.8607 26.0687 20.0047C26.066 20.1487 26.0923 20.2918 26.1459 20.4256C26.1995 20.5593 26.2794 20.681 26.3808 20.7833C26.4823 20.8856 26.6032 20.9666 26.7364 21.0214C26.8697 21.0761 27.0126 21.1037 27.1567 21.1023C27.3008 21.1036 27.4437 21.0761 27.5769 21.0213C27.7102 20.9665 27.8311 20.8855 27.9326 20.7832C28.0341 20.6809 28.114 20.5593 28.1677 20.4256C28.2215 20.2919 28.2478 20.1488 28.2453 20.0047C28.2477 19.8607 28.2212 19.7176 28.1675 19.584C28.1137 19.4504 28.0337 19.3289 27.9323 19.2267C27.8308 19.1245 27.7099 19.0437 27.5767 18.9889C27.4435 18.9342 27.3007 18.9066 27.1567 18.908ZM29.3603 20.0047C29.3603 21.1976 28.4393 22.1643 27.157 22.1643C25.8747 22.1643 24.9544 21.1976 24.9544 20.0043C24.9544 18.8136 25.8743 17.846 27.1567 17.846C28.439 17.846 29.3603 18.8135 29.3603 20.0046V20.0047ZM19.3518 18.8679C19.3362 18.863 18.8932 18.7406 18.5292 18.7406C18.1075 18.7406 17.8782 18.8819 17.8782 19.0823C17.8782 19.3363 18.1875 19.4249 18.3605 19.4796L18.6508 19.572C19.3342 19.7892 19.6451 20.2569 19.6451 20.7649C19.6451 21.8126 18.7238 22.1646 17.9185 22.1646C17.5373 22.1609 17.1572 22.1228 16.7829 22.0506V21.0908C16.8755 21.1142 17.3169 21.2462 17.7765 21.2462C18.3002 21.2462 18.5409 21.0929 18.5409 20.8569C18.5409 20.6455 18.3325 20.5235 18.0715 20.4415C18.0082 20.4202 17.9122 20.3902 17.8469 20.3689C17.2609 20.1835 16.7722 19.8388 16.7722 19.1489C16.7722 18.3689 17.3562 17.8452 18.3262 17.8452C18.672 17.8499 19.0162 17.8944 19.3518 17.9779V18.8678V18.8679Z" fill="white"/>
<path d="M15.3611 22.0904H14.3088V17.9199H15.3611V22.0904Z" fill="white"/>
<path d="M8.56595 13.4384C8.56554 13.3001 8.51032 13.1677 8.4124 13.0702C8.31448 12.9726 8.18186 12.9179 8.04365 12.918C7.90544 12.9179 7.77282 12.9725 7.67484 13.07C7.57687 13.1675 7.52154 13.2998 7.521 13.438V14.533C7.52443 14.6693 7.58099 14.7989 7.67861 14.894C7.77622 14.9892 7.90717 15.0424 8.0435 15.0424C8.17983 15.0424 8.31077 14.9892 8.40838 14.894C8.506 14.7989 8.56256 14.6693 8.566 14.533L8.56595 13.4384ZM11.4356 12.0019C11.4356 11.9333 11.4221 11.8653 11.3958 11.802C11.3696 11.7386 11.3311 11.681 11.2825 11.6325C11.234 11.584 11.1764 11.5455 11.113 11.5192C11.0496 11.493 10.9817 11.4795 10.9131 11.4795C10.8445 11.4795 10.7765 11.493 10.7131 11.5192C10.6497 11.5455 10.5921 11.584 10.5436 11.6325C10.4951 11.681 10.4566 11.7386 10.4304 11.802C10.4041 11.8653 10.3906 11.9333 10.3906 12.0019V14.5332C10.3906 14.6718 10.4456 14.8047 10.5436 14.9027C10.6416 15.0007 10.7745 15.0557 10.9131 15.0557C11.0517 15.0557 11.1846 15.0007 11.2825 14.9027C11.3805 14.8047 11.4356 14.6718 11.4356 14.5332V12.0016V12.0019ZM14.3056 10.0359C14.3052 9.89769 14.2499 9.76524 14.152 9.66763C14.0541 9.57003 13.9215 9.51524 13.7832 9.51528C13.6449 9.51518 13.5122 9.56993 13.4142 9.66754C13.3162 9.76515 13.261 9.89764 13.2606 10.0359V15.5736C13.264 15.7099 13.3206 15.8394 13.4182 15.9345C13.5158 16.0297 13.6467 16.0829 13.7831 16.0829C13.9194 16.0829 14.0503 16.0297 14.1479 15.9345C14.2455 15.8394 14.3021 15.7099 14.3056 15.5736V10.0359ZM17.1752 12.0019C17.1753 11.9333 17.1618 11.8653 17.1356 11.8019C17.1094 11.7385 17.0709 11.6808 17.0224 11.6322C16.9739 11.5837 16.9163 11.5452 16.8529 11.5189C16.7895 11.4926 16.7215 11.479 16.6529 11.479C16.5843 11.479 16.5163 11.4925 16.4529 11.5188C16.3896 11.545 16.332 11.5835 16.2834 11.632C16.2349 11.6805 16.1964 11.7381 16.1702 11.8015C16.1439 11.8649 16.1304 11.9328 16.1304 12.0015V14.5328C16.1304 14.6713 16.1854 14.8043 16.2834 14.9022C16.3814 15.0002 16.5143 15.0553 16.6529 15.0553C16.7915 15.0553 16.9244 15.0002 17.0224 14.9022C17.1203 14.8043 17.1754 14.6713 17.1754 14.5328V12.0012L17.1752 12.0019ZM20.0418 13.4384C20.0419 13.3005 19.9872 13.1683 19.8899 13.0707C19.7925 12.9731 19.6603 12.9182 19.5225 12.918C19.3843 12.9179 19.2518 12.9726 19.1539 13.0701C19.056 13.1675 19.0007 13.2999 19.0002 13.438V14.533C19.0002 14.6711 19.055 14.8036 19.1527 14.9013C19.2504 14.999 19.3829 15.0538 19.521 15.0538C19.6591 15.0538 19.7916 14.999 19.8893 14.9013C19.9869 14.8036 20.0418 14.6711 20.0418 14.533V13.4384ZM22.9128 12.0019C22.9093 11.8661 22.853 11.7369 22.7557 11.6421C22.6584 11.5472 22.5279 11.4941 22.392 11.4941C22.2561 11.4941 22.1256 11.5472 22.0283 11.6421C21.931 11.7369 21.8746 11.8661 21.8711 12.0019V14.5332C21.8712 14.6713 21.926 14.8038 22.0237 14.9015C22.1214 14.9991 22.2538 15.054 22.392 15.054C22.4604 15.054 22.5281 15.0406 22.5913 15.0144C22.6545 14.9882 22.7119 14.9499 22.7602 14.9015C22.8086 14.8531 22.847 14.7957 22.8731 14.7325C22.8993 14.6693 22.9128 14.6016 22.9128 14.5332V12.0016V12.0019ZM25.7844 10.0359C25.7844 9.89782 25.7295 9.76536 25.6318 9.66768C25.5342 9.57001 25.4017 9.51514 25.2636 9.51514C25.1254 9.51514 24.993 9.57001 24.8953 9.66768C24.7976 9.76536 24.7428 9.89782 24.7428 10.0359V15.5736C24.7386 15.6676 24.76 15.7609 24.8047 15.8437C24.8493 15.9265 24.9155 15.9957 24.9963 16.0439C25.0771 16.0922 25.1695 16.1177 25.2635 16.1177C25.3576 16.1177 25.45 16.0922 25.5308 16.0439C25.6116 15.9957 25.6778 15.9266 25.7224 15.8437C25.7671 15.7609 25.7885 15.6676 25.7844 15.5736V10.0359ZM28.6554 12.0019C28.6552 11.933 28.6414 11.8648 28.6148 11.8012C28.5881 11.7376 28.5492 11.68 28.5002 11.6315C28.4512 11.583 28.393 11.5448 28.3292 11.5189C28.2653 11.493 28.1969 11.48 28.128 11.4806C27.9899 11.4807 27.8575 11.5356 27.7598 11.6333C27.6622 11.731 27.6073 11.8635 27.6073 12.0016V14.5332C27.6072 14.6017 27.6206 14.6695 27.6467 14.7328C27.6728 14.7961 27.7112 14.8536 27.7595 14.9021C27.8079 14.9505 27.8653 14.989 27.9285 15.0153C27.9918 15.0415 28.0596 15.0551 28.128 15.0551C28.197 15.0558 28.2654 15.0428 28.3294 15.0169C28.3933 14.991 28.4515 14.9526 28.5005 14.9041C28.5495 14.8556 28.5884 14.7978 28.615 14.7342C28.6416 14.6705 28.6553 14.6022 28.6554 14.5332V12.0016V12.0019ZM31.521 13.4384C31.521 13.3001 31.4661 13.1675 31.3683 13.0697C31.2705 12.9719 31.1379 12.917 30.9997 12.917C30.8614 12.917 30.7288 12.9719 30.6311 13.0697C30.5333 13.1675 30.4784 13.3001 30.4784 13.4384V14.5331C30.4783 14.6016 30.4917 14.6695 30.5179 14.7328C30.544 14.7962 30.5824 14.8537 30.6308 14.9022C30.6792 14.9507 30.7367 14.9892 30.8 15.0155C30.8633 15.0418 30.9312 15.0553 30.9997 15.0554C31.0682 15.0553 31.136 15.0417 31.1993 15.0154C31.2625 14.9891 31.32 14.9506 31.3684 14.9021C31.4167 14.8536 31.4551 14.7961 31.4812 14.7328C31.5074 14.6694 31.5208 14.6016 31.5207 14.5331V13.4384L31.521 13.4384Z" fill="white"/>
<path d="M56.0672 21.6265C55.3006 21.9976 54.2997 22.1831 53.0643 22.1831C51.453 22.1831 50.1859 21.7095 49.263 20.7622C48.3402 19.8149 47.8788 18.5527 47.8788 16.9756C47.8788 15.2959 48.3963 13.9336 49.4315 12.8887C50.4715 11.8438 51.8192 11.3213 53.4745 11.3213C54.4999 11.3213 55.3641 11.4507 56.0672 11.7095V13.9873C55.3641 13.5674 54.5633 13.3574 53.6649 13.3574C52.6786 13.3574 51.8827 13.6675 51.2772 14.2876C50.6717 14.9077 50.369 15.7476 50.369 16.8071C50.369 17.8228 50.6546 18.6333 51.2259 19.2388C51.7972 19.8394 52.5663 20.1396 53.5331 20.1396C54.4559 20.1396 55.3006 19.915 56.0672 19.4658V21.6265ZM59.2868 13.3135C58.8962 13.3135 58.5763 13.1987 58.3273 12.9692C58.0783 12.7349 57.9538 12.4492 57.9538 12.1123C57.9538 11.7656 58.0783 11.4824 58.3273 11.2627C58.5763 11.043 58.8962 10.9331 59.2868 10.9331C59.6823 10.9331 60.0021 11.043 60.2463 11.2627C60.4953 11.4824 60.6198 11.7656 60.6198 12.1123C60.6198 12.4639 60.4953 12.752 60.2463 12.9766C60.0021 13.2012 59.6823 13.3135 59.2868 13.3135ZM60.4294 22H58.1149V14.5H60.4294V22ZM62.0669 21.8022V19.9272C62.4478 20.1567 62.8262 20.3276 63.2021 20.4399C63.583 20.5522 63.9419 20.6084 64.2788 20.6084C64.689 20.6084 65.0112 20.5522 65.2456 20.4399C65.4849 20.3276 65.6045 20.1567 65.6045 19.9272C65.6045 19.7808 65.5508 19.6587 65.4434 19.561C65.3359 19.4634 65.1968 19.3779 65.0259 19.3047C64.8599 19.2314 64.6768 19.1655 64.4766 19.1069C64.2764 19.0483 64.0835 18.9824 63.8979 18.9092C63.6001 18.7969 63.3364 18.6772 63.1069 18.5503C62.8823 18.4185 62.6919 18.2671 62.5356 18.0962C62.3843 17.9253 62.2671 17.7275 62.1841 17.5029C62.106 17.2783 62.0669 17.0122 62.0669 16.7046C62.0669 16.2847 62.1572 15.9233 62.3379 15.6206C62.5234 15.3179 62.7676 15.0713 63.0703 14.8809C63.3779 14.6855 63.7271 14.5439 64.1177 14.4561C64.5132 14.3633 64.9233 14.3169 65.3481 14.3169C65.6802 14.3169 66.0171 14.3438 66.3589 14.3975C66.7007 14.4463 67.0376 14.5195 67.3696 14.6172V16.4043C67.0767 16.2334 66.7617 16.1064 66.4248 16.0234C66.0928 15.9355 65.7656 15.8916 65.4434 15.8916C65.292 15.8916 65.1479 15.9062 65.0112 15.9355C64.8794 15.96 64.7622 15.999 64.6597 16.0527C64.5571 16.1016 64.4766 16.1675 64.418 16.2505C64.3594 16.3286 64.3301 16.4189 64.3301 16.5215C64.3301 16.6582 64.374 16.7754 64.4619 16.873C64.5498 16.9707 64.6646 17.0562 64.8062 17.1294C64.9478 17.1978 65.104 17.2612 65.2749 17.3198C65.4507 17.3735 65.624 17.4297 65.7949 17.4883C66.1025 17.5957 66.3809 17.7129 66.6299 17.8398C66.8789 17.9668 67.0913 18.1157 67.2671 18.2866C67.4478 18.4575 67.5845 18.6577 67.6772 18.8872C67.7749 19.1167 67.8237 19.3901 67.8237 19.7075C67.8237 20.1519 67.7261 20.5327 67.5308 20.8501C67.3403 21.1626 67.084 21.4189 66.7617 21.6191C66.4443 21.8145 66.0757 21.9561 65.6558 22.0439C65.2407 22.1367 64.8086 22.1831 64.3594 22.1831C63.5342 22.1831 62.77 22.0562 62.0669 21.8022ZM75.0277 21.729C74.5052 22.0317 73.7508 22.1831 72.7645 22.1831C71.6121 22.1831 70.6795 21.834 69.9666 21.1357C69.2537 20.4375 68.8973 19.5366 68.8973 18.4331C68.8973 17.1587 69.2781 16.1553 70.0399 15.4229C70.8065 14.6855 71.8294 14.3169 73.1087 14.3169C73.9925 14.3169 74.6321 14.4341 75.0277 14.6685V16.6313C74.5443 16.27 74.0047 16.0894 73.409 16.0894C72.7449 16.0894 72.2176 16.2847 71.827 16.6753C71.4412 17.061 71.2484 17.5957 71.2484 18.2793C71.2484 18.9434 71.4339 19.4658 71.805 19.8467C72.1761 20.2227 72.6863 20.4106 73.3358 20.4106C73.9119 20.4106 74.4759 20.23 75.0277 19.8687V21.729ZM80.3053 22.1831C79.0553 22.1831 78.0714 21.834 77.3537 21.1357C76.6408 20.4326 76.2843 19.4805 76.2843 18.2793C76.2843 17.0391 76.6554 16.0698 77.3976 15.3716C78.1398 14.6685 79.1432 14.3169 80.4079 14.3169C81.653 14.3169 82.6295 14.6685 83.3375 15.3716C84.0455 16.0698 84.3996 16.9951 84.3996 18.1475C84.3996 19.3926 84.0333 20.3765 83.3009 21.0991C82.5734 21.8218 81.5748 22.1831 80.3053 22.1831ZM80.3639 16.0894C79.817 16.0894 79.3922 16.2773 79.0895 16.6533C78.7868 17.0293 78.6354 17.5615 78.6354 18.25C78.6354 19.6904 79.2164 20.4106 80.3786 20.4106C81.487 20.4106 82.0412 19.6709 82.0412 18.1914C82.0412 16.79 81.4821 16.0894 80.3639 16.0894Z" fill="white"/>
<path d="M92 0H9C6.23858 0 4 2.23858 4 5V27C4 29.7614 6.23858 32 9 32H92C94.7614 32 97 29.7614 97 27V5C97 2.23858 94.7614 0 92 0Z" fill="url(#paint0_linear_14_1623)"/>
</g>
<defs>
<filter id="filter0_d_14_1623" x="0" y="0" width="101" height="40" filterUnits="userSpaceOnUse" color-interpolation-filters="sRGB">
<feFlood flood-opacity="0" result="BackgroundImageFix"/>
<feColorMatrix in="SourceAlpha" type="matrix" values="0 0 0 0 0 0 0 0 0 0 0 0 0 0 0 0 0 0 127 0" result="hardAlpha"/>
<feOffset dy="4"/>
<feGaussianBlur stdDeviation="2"/>
<feComposite in2="hardAlpha" operator="out"/>
<feColorMatrix type="matrix" values="0 0 0 0 0 0 0 0 0 0 0 0 0 0 0 0 0 0 0.25 0"/>
<feBlend mode="normal" in2="BackgroundImageFix" result="effect1_dropShadow_14_1623"/>
<feBlend mode="normal" in="SourceGraphic" in2="effect1_dropShadow_14_1623" result="shape"/>
</filter>
<linearGradient id="paint0_linear_14_1623" x1="4" y1="0" x2="4" y2="32" gradientUnits="userSpaceOnUse">
<stop stop-color="#BBBBBB" stop-opacity="0.1"/>
<stop offset="1" stop-opacity="0.1"/>
</linearGradient>
</defs>
</svg>
